# Blender 4.3.2
# www.blender.org
mtllib strom.mtl
o Cylinder
v 0.000000 -0.048700 -0.284034
v 0.000000 0.519369 -0.284034
v 0.055412 -0.048700 -0.278577
v 0.055412 0.519369 -0.278577
v 0.108695 -0.048700 -0.262414
v 0.108695 0.519369 -0.262414
v 0.157801 -0.048700 -0.236166
v 0.157801 0.519369 -0.236166
v 0.200843 -0.048700 -0.200843
v 0.200843 0.519369 -0.200843
v 0.236166 -0.048700 -0.157801
v 0.236166 0.519369 -0.157801
v 0.262414 -0.048700 -0.108695
v 0.262414 0.519369 -0.108695
v 0.278577 -0.048700 -0.055412
v 0.278577 0.519369 -0.055412
v 0.284034 -0.048700 -0.000000
v 0.284034 0.519369 -0.000000
v 0.278577 -0.048700 0.055412
v 0.278577 0.519369 0.055412
v 0.262414 -0.048700 0.108695
v 0.262414 0.519369 0.108695
v 0.236166 -0.048700 0.157801
v 0.236166 0.519369 0.157801
v 0.200843 -0.048700 0.200843
v 0.200843 0.519369 0.200843
v 0.157801 -0.048700 0.236166
v 0.157801 0.519369 0.236166
v 0.108695 -0.048700 0.262414
v 0.108695 0.519369 0.262414
v 0.055412 -0.048700 0.278577
v 0.055412 0.519369 0.278577
v 0.000000 -0.048700 0.284034
v 0.000000 0.519369 0.284034
v -0.055412 -0.048700 0.278577
v -0.055412 0.519369 0.278577
v -0.108695 -0.048700 0.262414
v -0.108695 0.519369 0.262414
v -0.157801 -0.048700 0.236166
v -0.157801 0.519369 0.236166
v -0.200843 -0.048700 0.200843
v -0.200843 0.519369 0.200843
v -0.236166 -0.048700 0.157801
v -0.236166 0.519369 0.157801
v -0.262414 -0.048700 0.108695
v -0.262414 0.519369 0.108695
v -0.278577 -0.048700 0.055412
v -0.278577 0.519369 0.055412
v -0.284034 -0.048700 -0.000000
v -0.284034 0.519369 -0.000000
v -0.278577 -0.048700 -0.055412
v -0.278577 0.519369 -0.055412
v -0.262414 -0.048700 -0.108695
v -0.262414 0.519369 -0.108695
v -0.236166 -0.048700 -0.157801
v -0.236166 0.519369 -0.157801
v -0.200843 -0.048700 -0.200843
v -0.200843 0.519369 -0.200843
v -0.157801 -0.048700 -0.236166
v -0.157801 0.519369 -0.236166
v -0.108695 -0.048700 -0.262414
v -0.108695 0.519369 -0.262414
v -0.055412 -0.048700 -0.278577
v -0.055412 0.519369 -0.278577
v 0.027064 4.700957 -0.136058
v 0.000000 4.700957 -0.138724
v 0.053087 4.700957 -0.128164
v 0.077071 4.700957 -0.115344
v 0.098092 4.700957 -0.098092
v 0.115345 4.700957 -0.077071
v 0.128164 4.700957 -0.053087
v 0.136058 4.700957 -0.027064
v 0.138724 4.700957 -0.000000
v 0.136058 4.700957 0.027064
v 0.128164 4.700957 0.053087
v 0.115345 4.700957 0.077071
v 0.098092 4.700957 0.098092
v 0.077071 4.700957 0.115344
v 0.053087 4.700957 0.128164
v 0.027064 4.700957 0.136058
v 0.000000 4.700957 0.138724
v -0.027064 4.700957 0.136058
v -0.053087 4.700957 0.128164
v -0.077071 4.700957 0.115344
v -0.098092 4.700957 0.098092
v -0.115344 4.700957 0.077071
v -0.128164 4.700957 0.053087
v -0.136058 4.700957 0.027064
v -0.138724 4.700957 -0.000000
v -0.136058 4.700957 -0.027064
v -0.128164 4.700957 -0.053087
v -0.115344 4.700957 -0.077071
v -0.098092 4.700957 -0.098092
v -0.077071 4.700957 -0.115344
v -0.053087 4.700957 -0.128164
v -0.027064 4.700957 -0.136058
v -0.000000 3.687078 -1.840129
v 0.358991 3.687078 -1.804771
v 0.704187 3.687078 -1.700058
v 1.022321 3.687078 -1.530011
v 1.301168 3.687078 -1.301168
v 1.530011 3.687078 -1.022321
v 1.700058 3.687078 -0.704187
v 1.804771 3.687078 -0.358991
v 1.840129 3.687078 0.000000
v 1.804771 3.687078 0.358991
v 1.700058 3.687078 0.704187
v 1.530011 3.687078 1.022321
v 1.301168 3.687078 1.301168
v 1.022321 3.687078 1.530011
v 0.704187 3.687078 1.700058
v 0.358991 3.687078 1.804771
v -0.000000 3.687078 1.840129
v -0.358991 3.687078 1.804771
v -0.704187 3.687078 1.700058
v -1.022321 3.687078 1.530011
v -1.301168 3.687078 1.301168
v -1.530011 3.687078 1.022321
v -1.700058 3.687078 0.704187
v -1.804771 3.687078 0.358991
v -1.840129 3.687078 0.000000
v -1.804771 3.687078 -0.358991
v -1.700058 3.687078 -0.704187
v -1.530011 3.687078 -1.022321
v -1.301168 3.687078 -1.301168
v -1.022321 3.687078 -1.530011
v -0.704187 3.687078 -1.700058
v -0.358991 3.687078 -1.804771
v 0.000000 7.405478 0.000000
v -0.000000 5.934921 -1.396026
v 0.272351 5.934921 -1.369202
v 0.534236 5.934921 -1.289760
v 0.775591 5.934921 -1.160753
v 0.987140 5.934921 -0.987140
v 1.160753 5.934921 -0.775591
v 1.289760 5.934921 -0.534236
v 1.369202 5.934921 -0.272351
v 1.396026 5.934921 0.000000
v 1.369202 5.934921 0.272351
v 1.289760 5.934921 0.534236
v 1.160753 5.934921 0.775591
v 0.987140 5.934921 0.987140
v 0.775591 5.934921 1.160753
v 0.534236 5.934921 1.289760
v 0.272351 5.934921 1.369202
v -0.000000 5.934921 1.396026
v -0.272351 5.934921 1.369202
v -0.534236 5.934921 1.289760
v -0.775591 5.934921 1.160753
v -0.987140 5.934921 0.987140
v -1.160753 5.934921 0.775591
v -1.289760 5.934921 0.534236
v -1.369202 5.934921 0.272351
v -1.396026 5.934921 0.000000
v -1.369202 5.934921 -0.272351
v -1.289760 5.934921 -0.534236
v -1.160753 5.934921 -0.775591
v -0.987140 5.934921 -0.987140
v -0.775591 5.934921 -1.160753
v -0.534236 5.934921 -1.289760
v -0.272351 5.934921 -1.369202
v 0.000000 9.675676 0.000000
v 0.000000 7.775051 -1.000000
v 0.195090 7.775051 -0.980785
v 0.382683 7.775051 -0.923880
v 0.555570 7.775051 -0.831470
v 0.707107 7.775051 -0.707107
v 0.831470 7.775051 -0.555570
v 0.923880 7.775051 -0.382683
v 0.980785 7.775051 -0.195090
v 1.000000 7.775051 0.000000
v 0.980785 7.775051 0.195090
v 0.923880 7.775051 0.382683
v 0.831470 7.775051 0.555570
v 0.707107 7.775051 0.707107
v 0.555570 7.775051 0.831470
v 0.382683 7.775051 0.923880
v 0.195090 7.775051 0.980785
v 0.000000 7.775051 1.000000
v -0.195090 7.775051 0.980785
v -0.382683 7.775051 0.923880
v -0.555570 7.775051 0.831470
v -0.707107 7.775051 0.707107
v -0.831470 7.775051 0.555570
v -0.923880 7.775051 0.382683
v -0.980785 7.775051 0.195090
v -1.000000 7.775051 0.000000
v -0.980785 7.775051 -0.195090
v -0.923880 7.775051 -0.382683
v -0.831470 7.775051 -0.555570
v -0.707107 7.775051 -0.707107
v -0.555570 7.775051 -0.831470
v -0.382683 7.775051 -0.923880
v -0.195090 7.775051 -0.980785
v 0.000000 11.515806 0.000000
vn 0.0980 -0.0000 -0.9952
vn 0.2903 -0.0000 -0.9569
vn 0.4714 -0.0000 -0.8819
vn 0.6344 -0.0000 -0.7730
vn 0.7730 -0.0000 -0.6344
vn 0.8819 -0.0000 -0.4714
vn 0.9569 -0.0000 -0.2903
vn 0.9952 -0.0000 -0.0980
vn 0.9952 -0.0000 0.0980
vn 0.9569 -0.0000 0.2903
vn 0.8819 -0.0000 0.4714
vn 0.7730 -0.0000 0.6344
vn 0.6344 -0.0000 0.7730
vn 0.4714 -0.0000 0.8819
vn 0.2903 -0.0000 0.9569
vn 0.0980 -0.0000 0.9952
vn -0.0980 -0.0000 0.9952
vn -0.2903 -0.0000 0.9569
vn -0.4714 -0.0000 0.8819
vn -0.6344 -0.0000 0.7730
vn -0.7730 -0.0000 0.6344
vn -0.8819 -0.0000 0.4714
vn -0.9569 -0.0000 0.2903
vn -0.9952 -0.0000 0.0980
vn -0.9952 -0.0000 -0.0980
vn -0.9569 -0.0000 -0.2903
vn -0.8819 -0.0000 -0.4714
vn -0.7730 -0.0000 -0.6344
vn -0.6344 -0.0000 -0.7730
vn -0.4714 -0.0000 -0.8819
vn -0.0980 0.0346 0.9946
vn -0.2903 -0.0000 -0.9569
vn -0.0980 -0.0000 -0.9952
vn -0.0000 -1.0000 -0.0000
vn -0.0000 1.0000 -0.0000
vn -0.9564 0.0346 -0.2901
vn 0.6340 0.0346 -0.7725
vn 0.6340 0.0346 0.7725
vn -0.8814 0.0346 0.4711
vn -0.2901 0.0346 -0.9564
vn 0.9946 0.0346 0.0980
vn -0.2901 0.0346 0.9564
vn -0.8814 0.0346 -0.4711
vn 0.7725 0.0346 -0.6340
vn 0.4711 0.0346 0.8814
vn -0.9564 0.0346 0.2901
vn 0.0980 0.0346 -0.9946
vn -0.0980 0.0346 -0.9946
vn 0.9564 0.0346 0.2901
vn -0.4711 0.0346 0.8814
vn -0.7725 0.0346 -0.6340
vn 0.8814 0.0346 -0.4711
vn 0.2901 0.0346 0.9564
vn -0.9946 0.0346 0.0980
vn 0.2901 0.0346 -0.9564
vn 0.8814 0.0346 0.4711
vn -0.6340 0.0346 0.7725
vn -0.6340 0.0346 -0.7725
vn 0.9564 0.0346 -0.2901
vn 0.0980 0.0346 0.9946
vn -0.9946 0.0346 -0.0980
vn 0.4711 0.0346 -0.8814
vn 0.7725 0.0346 0.6340
vn -0.7725 0.0346 0.6340
vn -0.4711 0.0346 -0.8814
vn 0.9946 0.0346 -0.0980
vn 0.0879 0.4418 -0.8928
vn 0.2604 0.4418 -0.8585
vn 0.4229 0.4418 -0.7912
vn 0.5691 0.4418 -0.6935
vn 0.6935 0.4418 -0.5691
vn 0.7912 0.4418 -0.4229
vn 0.8585 0.4418 -0.2604
vn 0.8928 0.4418 -0.0879
vn 0.8928 0.4418 0.0879
vn 0.8585 0.4418 0.2604
vn 0.7912 0.4418 0.4229
vn 0.6935 0.4418 0.5691
vn 0.5691 0.4418 0.6935
vn 0.4229 0.4418 0.7912
vn 0.2604 0.4418 0.8585
vn 0.0879 0.4418 0.8928
vn -0.0879 0.4418 0.8928
vn -0.2604 0.4418 0.8585
vn -0.4229 0.4418 0.7912
vn -0.5691 0.4418 0.6935
vn -0.6935 0.4418 0.5691
vn -0.7912 0.4418 0.4229
vn -0.8585 0.4418 0.2604
vn -0.8928 0.4418 0.0879
vn -0.8928 0.4418 -0.0879
vn -0.8585 0.4418 -0.2604
vn -0.7912 0.4418 -0.4229
vn -0.6935 0.4418 -0.5691
vn -0.5691 0.4418 -0.6935
vn -0.4229 0.4418 -0.7912
vn -0.2604 0.4418 -0.8585
vn -0.0879 0.4418 -0.8928
vn 0.0919 0.3482 -0.9329
vn 0.2721 0.3482 -0.8971
vn 0.4419 0.3482 -0.8267
vn 0.5947 0.3482 -0.7246
vn 0.7246 0.3482 -0.5947
vn 0.8267 0.3482 -0.4419
vn 0.8971 0.3482 -0.2721
vn 0.9329 0.3482 -0.0919
vn 0.9329 0.3482 0.0919
vn 0.8971 0.3482 0.2721
vn 0.8267 0.3482 0.4419
vn 0.7246 0.3482 0.5947
vn 0.5947 0.3482 0.7246
vn 0.4419 0.3482 0.8267
vn 0.2721 0.3482 0.8971
vn 0.0919 0.3482 0.9329
vn -0.0919 0.3482 0.9329
vn -0.2721 0.3482 0.8971
vn -0.4419 0.3482 0.8267
vn -0.5947 0.3482 0.7246
vn -0.7246 0.3482 0.5947
vn -0.8267 0.3482 0.4419
vn -0.8971 0.3482 0.2721
vn -0.9329 0.3482 0.0919
vn -0.9329 0.3482 -0.0919
vn -0.8971 0.3482 -0.2721
vn -0.8267 0.3482 -0.4419
vn -0.7246 0.3482 -0.5947
vn -0.5947 0.3482 -0.7246
vn -0.4419 0.3482 -0.8267
vn -0.2721 0.3482 -0.8971
vn -0.0919 0.3482 -0.9329
vn 0.0947 0.2571 -0.9617
vn 0.2805 0.2571 -0.9248
vn 0.4556 0.2571 -0.8523
vn 0.6131 0.2571 -0.7470
vn 0.7470 0.2571 -0.6131
vn 0.8523 0.2571 -0.4556
vn 0.9248 0.2571 -0.2805
vn 0.9617 0.2571 -0.0947
vn 0.9617 0.2571 0.0947
vn 0.9248 0.2571 0.2805
vn 0.8523 0.2571 0.4556
vn 0.7470 0.2571 0.6131
vn 0.6131 0.2571 0.7470
vn 0.4556 0.2571 0.8523
vn 0.2805 0.2571 0.9248
vn 0.0947 0.2571 0.9617
vn -0.0947 0.2571 0.9617
vn -0.2805 0.2571 0.9248
vn -0.4556 0.2571 0.8523
vn -0.6131 0.2571 0.7470
vn -0.7470 0.2571 0.6131
vn -0.8523 0.2571 0.4556
vn -0.9248 0.2571 0.2805
vn -0.9617 0.2571 0.0947
vn -0.9617 0.2571 -0.0947
vn -0.9248 0.2571 -0.2805
vn -0.8523 0.2571 -0.4556
vn -0.7470 0.2571 -0.6131
vn -0.6131 0.2571 -0.7470
vn -0.4556 0.2571 -0.8523
vn -0.2805 0.2571 -0.9248
vn -0.0947 0.2571 -0.9617
vt 1.000000 0.500000
vt 1.000000 1.000000
vt 0.968750 1.000000
vt 0.968750 0.500000
vt 0.937500 1.000000
vt 0.937500 0.500000
vt 0.906250 1.000000
vt 0.906250 0.500000
vt 0.875000 1.000000
vt 0.875000 0.500000
vt 0.843750 1.000000
vt 0.843750 0.500000
vt 0.812500 1.000000
vt 0.812500 0.500000
vt 0.781250 1.000000
vt 0.781250 0.500000
vt 0.750000 1.000000
vt 0.750000 0.500000
vt 0.718750 1.000000
vt 0.718750 0.500000
vt 0.687500 1.000000
vt 0.687500 0.500000
vt 0.656250 1.000000
vt 0.656250 0.500000
vt 0.625000 1.000000
vt 0.625000 0.500000
vt 0.593750 1.000000
vt 0.593750 0.500000
vt 0.562500 1.000000
vt 0.562500 0.500000
vt 0.531250 1.000000
vt 0.531250 0.500000
vt 0.500000 1.000000
vt 0.500000 0.500000
vt 0.468750 1.000000
vt 0.468750 0.500000
vt 0.437500 1.000000
vt 0.437500 0.500000
vt 0.406250 1.000000
vt 0.406250 0.500000
vt 0.375000 1.000000
vt 0.375000 0.500000
vt 0.343750 1.000000
vt 0.343750 0.500000
vt 0.312500 1.000000
vt 0.312500 0.500000
vt 0.281250 1.000000
vt 0.281250 0.500000
vt 0.250000 1.000000
vt 0.250000 0.500000
vt 0.218750 1.000000
vt 0.218750 0.500000
vt 0.187500 1.000000
vt 0.187500 0.500000
vt 0.156250 1.000000
vt 0.156250 0.500000
vt 0.125000 1.000000
vt 0.125000 0.500000
vt 0.093750 1.000000
vt 0.093750 0.500000
vt 0.062500 1.000000
vt 0.062500 0.500000
vt 0.031250 1.000000
vt 0.031250 0.500000
vt 0.000000 1.000000
vt 0.000000 0.500000
vt 0.750000 0.490000
vt 0.796822 0.485388
vt 0.841844 0.471731
vt 0.883337 0.449553
vt 0.919706 0.419706
vt 0.949553 0.383337
vt 0.971731 0.341844
vt 0.985388 0.296822
vt 0.990000 0.250000
vt 0.985388 0.203178
vt 0.971731 0.158156
vt 0.949553 0.116663
vt 0.919706 0.080294
vt 0.883337 0.050447
vt 0.841844 0.028269
vt 0.796822 0.014612
vt 0.750000 0.010000
vt 0.703178 0.014612
vt 0.658156 0.028269
vt 0.616663 0.050447
vt 0.580294 0.080294
vt 0.550447 0.116663
vt 0.528269 0.158156
vt 0.514612 0.203178
vt 0.510000 0.250000
vt 0.514612 0.296822
vt 0.528269 0.341844
vt 0.550447 0.383337
vt 0.580294 0.419706
vt 0.616663 0.449553
vt 0.658156 0.471731
vt 0.703178 0.485388
vt 0.296822 0.485388
vt 0.250000 0.490000
vt 0.203178 0.485388
vt 0.158156 0.471731
vt 0.116663 0.449553
vt 0.080294 0.419706
vt 0.050447 0.383337
vt 0.028269 0.341844
vt 0.014612 0.296822
vt 0.010000 0.250000
vt 0.014612 0.203178
vt 0.028269 0.158156
vt 0.050447 0.116663
vt 0.080294 0.080294
vt 0.116663 0.050447
vt 0.158156 0.028269
vt 0.203178 0.014612
vt 0.250000 0.010000
vt 0.296822 0.014612
vt 0.341844 0.028269
vt 0.383337 0.050447
vt 0.419706 0.080294
vt 0.449553 0.116663
vt 0.471731 0.158156
vt 0.485388 0.203178
vt 0.490000 0.250000
vt 0.485388 0.296822
vt 0.471731 0.341844
vt 0.449553 0.383337
vt 0.419706 0.419706
vt 0.383337 0.449553
vt 0.341844 0.471731
vt 0.250000 0.250000
s 0
f 1/1/1 2/2/1 4/3/1 3/4/1
f 3/4/2 4/3/2 6/5/2 5/6/2
f 5/6/3 6/5/3 8/7/3 7/8/3
f 7/8/4 8/7/4 10/9/4 9/10/4
f 9/10/5 10/9/5 12/11/5 11/12/5
f 11/12/6 12/11/6 14/13/6 13/14/6
f 13/14/7 14/13/7 16/15/7 15/16/7
f 15/16/8 16/15/8 18/17/8 17/18/8
f 17/18/9 18/17/9 20/19/9 19/20/9
f 19/20/10 20/19/10 22/21/10 21/22/10
f 21/22/11 22/21/11 24/23/11 23/24/11
f 23/24/12 24/23/12 26/25/12 25/26/12
f 25/26/13 26/25/13 28/27/13 27/28/13
f 27/28/14 28/27/14 30/29/14 29/30/14
f 29/30/15 30/29/15 32/31/15 31/32/15
f 31/32/16 32/31/16 34/33/16 33/34/16
f 33/34/17 34/33/17 36/35/17 35/36/17
f 35/36/18 36/35/18 38/37/18 37/38/18
f 37/38/19 38/37/19 40/39/19 39/40/19
f 39/40/20 40/39/20 42/41/20 41/42/20
f 41/42/21 42/41/21 44/43/21 43/44/21
f 43/44/22 44/43/22 46/45/22 45/46/22
f 45/46/23 46/45/23 48/47/23 47/48/23
f 47/48/24 48/47/24 50/49/24 49/50/24
f 49/50/25 50/49/25 52/51/25 51/52/25
f 51/52/26 52/51/26 54/53/26 53/54/26
f 53/54/27 54/53/27 56/55/27 55/56/27
f 55/56/28 56/55/28 58/57/28 57/58/28
f 57/58/29 58/57/29 60/59/29 59/60/29
f 59/60/30 60/59/30 62/61/30 61/62/30
f 36/35/31 34/33/31 81/33/31 82/35/31
f 61/62/32 62/61/32 64/63/32 63/64/32
f 63/64/33 64/63/33 2/65/33 1/66/33
f 1/67/34 3/68/34 5/69/34 7/70/34 9/71/34 11/72/34 13/73/34 15/74/34 17/75/34 19/76/34 21/77/34 23/78/34 25/79/34 27/80/34 29/81/34 31/82/34 33/83/34 35/84/34 37/85/34 39/86/34 41/87/34 43/88/34 45/89/34 47/90/34 49/91/34 51/92/34 53/93/34 55/94/34 57/95/34 59/96/34 61/97/34 63/98/34
f 65/99/35 66/100/35 96/101/35 95/102/35 94/103/35 93/104/35 92/105/35 91/106/35 90/107/35 89/108/35 88/109/35 87/110/35 86/111/35 85/112/35 84/113/35 83/114/35 82/115/35 81/116/35 80/117/35 79/118/35 78/119/35 77/120/35 76/121/35 75/122/35 74/123/35 73/124/35 72/125/35 71/126/35 70/127/35 69/128/35 68/129/35 67/130/35
f 54/53/36 52/51/36 90/51/36 91/53/36
f 10/9/37 8/7/37 68/7/37 69/9/37
f 28/27/38 26/25/38 77/25/38 78/27/38
f 46/45/39 44/43/39 86/43/39 87/45/39
f 64/63/40 62/61/40 95/61/40 96/63/40
f 20/19/41 18/17/41 73/17/41 74/19/41
f 38/37/42 36/35/42 82/35/42 83/37/42
f 56/55/43 54/53/43 91/53/43 92/55/43
f 12/11/44 10/9/44 69/9/44 70/11/44
f 30/29/45 28/27/45 78/27/45 79/29/45
f 48/47/46 46/45/46 87/45/46 88/47/46
f 4/3/47 2/2/47 66/2/47 65/3/47
f 2/65/48 64/63/48 96/63/48 66/65/48
f 22/21/49 20/19/49 74/19/49 75/21/49
f 40/39/50 38/37/50 83/37/50 84/39/50
f 58/57/51 56/55/51 92/55/51 93/57/51
f 14/13/52 12/11/52 70/11/52 71/13/52
f 32/31/53 30/29/53 79/29/53 80/31/53
f 50/49/54 48/47/54 88/47/54 89/49/54
f 6/5/55 4/3/55 65/3/55 67/5/55
f 24/23/56 22/21/56 75/21/56 76/23/56
f 42/41/57 40/39/57 84/39/57 85/41/57
f 60/59/58 58/57/58 93/57/58 94/59/58
f 16/15/59 14/13/59 71/13/59 72/15/59
f 34/33/60 32/31/60 80/31/60 81/33/60
f 52/51/61 50/49/61 89/49/61 90/51/61
f 8/7/62 6/5/62 67/5/62 68/7/62
f 26/25/63 24/23/63 76/23/63 77/25/63
f 44/43/64 42/41/64 85/41/64 86/43/64
f 62/61/65 60/59/65 94/59/65 95/61/65
f 18/17/66 16/15/66 72/15/66 73/17/66
f 97/100/67 129/131/67 98/99/67
f 98/99/68 129/131/68 99/130/68
f 99/130/69 129/131/69 100/129/69
f 100/129/70 129/131/70 101/128/70
f 101/128/71 129/131/71 102/127/71
f 102/127/72 129/131/72 103/126/72
f 103/126/73 129/131/73 104/125/73
f 104/125/74 129/131/74 105/124/74
f 105/124/75 129/131/75 106/123/75
f 106/123/76 129/131/76 107/122/76
f 107/122/77 129/131/77 108/121/77
f 108/121/78 129/131/78 109/120/78
f 109/120/79 129/131/79 110/119/79
f 110/119/80 129/131/80 111/118/80
f 111/118/81 129/131/81 112/117/81
f 112/117/82 129/131/82 113/116/82
f 113/116/83 129/131/83 114/115/83
f 114/115/84 129/131/84 115/114/84
f 115/114/85 129/131/85 116/113/85
f 116/113/86 129/131/86 117/112/86
f 117/112/87 129/131/87 118/111/87
f 118/111/88 129/131/88 119/110/88
f 119/110/89 129/131/89 120/109/89
f 120/109/90 129/131/90 121/108/90
f 121/108/91 129/131/91 122/107/91
f 122/107/92 129/131/92 123/106/92
f 123/106/93 129/131/93 124/105/93
f 124/105/94 129/131/94 125/104/94
f 125/104/95 129/131/95 126/103/95
f 126/103/96 129/131/96 127/102/96
f 97/67/34 98/68/34 99/69/34 100/70/34 101/71/34 102/72/34 103/73/34 104/74/34 105/75/34 106/76/34 107/77/34 108/78/34 109/79/34 110/80/34 111/81/34 112/82/34 113/83/34 114/84/34 115/85/34 116/86/34 117/87/34 118/88/34 119/89/34 120/90/34 121/91/34 122/92/34 123/93/34 124/94/34 125/95/34 126/96/34 127/97/34 128/98/34
f 127/102/97 129/131/97 128/101/97
f 128/101/98 129/131/98 97/100/98
f 130/100/99 162/131/99 131/99/99
f 131/99/100 162/131/100 132/130/100
f 132/130/101 162/131/101 133/129/101
f 133/129/102 162/131/102 134/128/102
f 134/128/103 162/131/103 135/127/103
f 135/127/104 162/131/104 136/126/104
f 136/126/105 162/131/105 137/125/105
f 137/125/106 162/131/106 138/124/106
f 138/124/107 162/131/107 139/123/107
f 139/123/108 162/131/108 140/122/108
f 140/122/109 162/131/109 141/121/109
f 141/121/110 162/131/110 142/120/110
f 142/120/111 162/131/111 143/119/111
f 143/119/112 162/131/112 144/118/112
f 144/118/113 162/131/113 145/117/113
f 145/117/114 162/131/114 146/116/114
f 146/116/115 162/131/115 147/115/115
f 147/115/116 162/131/116 148/114/116
f 148/114/117 162/131/117 149/113/117
f 149/113/118 162/131/118 150/112/118
f 150/112/119 162/131/119 151/111/119
f 151/111/120 162/131/120 152/110/120
f 152/110/121 162/131/121 153/109/121
f 153/109/122 162/131/122 154/108/122
f 154/108/123 162/131/123 155/107/123
f 155/107/124 162/131/124 156/106/124
f 156/106/125 162/131/125 157/105/125
f 157/105/126 162/131/126 158/104/126
f 158/104/127 162/131/127 159/103/127
f 159/103/128 162/131/128 160/102/128
f 130/67/34 131/68/34 132/69/34 133/70/34 134/71/34 135/72/34 136/73/34 137/74/34 138/75/34 139/76/34 140/77/34 141/78/34 142/79/34 143/80/34 144/81/34 145/82/34 146/83/34 147/84/34 148/85/34 149/86/34 150/87/34 151/88/34 152/89/34 153/90/34 154/91/34 155/92/34 156/93/34 157/94/34 158/95/34 159/96/34 160/97/34 161/98/34
f 160/102/129 162/131/129 161/101/129
f 161/101/130 162/131/130 130/100/130
f 163/100/131 195/131/131 164/99/131
f 164/99/132 195/131/132 165/130/132
f 165/130/133 195/131/133 166/129/133
f 166/129/134 195/131/134 167/128/134
f 167/128/135 195/131/135 168/127/135
f 168/127/136 195/131/136 169/126/136
f 169/126/137 195/131/137 170/125/137
f 170/125/138 195/131/138 171/124/138
f 171/124/139 195/131/139 172/123/139
f 172/123/140 195/131/140 173/122/140
f 173/122/141 195/131/141 174/121/141
f 174/121/142 195/131/142 175/120/142
f 175/120/143 195/131/143 176/119/143
f 176/119/144 195/131/144 177/118/144
f 177/118/145 195/131/145 178/117/145
f 178/117/146 195/131/146 179/116/146
f 179/116/147 195/131/147 180/115/147
f 180/115/148 195/131/148 181/114/148
f 181/114/149 195/131/149 182/113/149
f 182/113/150 195/131/150 183/112/150
f 183/112/151 195/131/151 184/111/151
f 184/111/152 195/131/152 185/110/152
f 185/110/153 195/131/153 186/109/153
f 186/109/154 195/131/154 187/108/154
f 187/108/155 195/131/155 188/107/155
f 188/107/156 195/131/156 189/106/156
f 189/106/157 195/131/157 190/105/157
f 190/105/158 195/131/158 191/104/158
f 191/104/159 195/131/159 192/103/159
f 192/103/160 195/131/160 193/102/160
f 163/67/34 164/68/34 165/69/34 166/70/34 167/71/34 168/72/34 169/73/34 170/74/34 171/75/34 172/76/34 173/77/34 174/78/34 175/79/34 176/80/34 177/81/34 178/82/34 179/83/34 180/84/34 181/85/34 182/86/34 183/87/34 184/88/34 185/89/34 186/90/34 187/91/34 188/92/34 189/93/34 190/94/34 191/95/34 192/96/34 193/97/34 194/98/34
f 193/102/161 195/131/161 194/101/161
f 194/101/162 195/131/162 163/100/162
